<svg width="238" height="238" viewBox="0 0 238 238" fill="none" xmlns="http://www.w3.org/2000/svg">
<path d="M173.385 91.5563V193.144C173.385 197.074 171.824 200.843 169.045 203.622C166.266 206.401 162.497 207.962 158.566 207.962H79.5331C75.6029 207.962 71.8337 206.401 69.0547 203.622C66.2756 200.843 64.7144 197.074 64.7144 193.144V91.5563L89.4123 76.7375V69.6541H99.2914V82.3291L74.5935 97.1479V193.144C74.5935 194.454 75.1139 195.71 76.0403 196.637C76.9666 197.563 78.223 198.083 79.5331 198.083H158.566C159.876 198.083 161.133 197.563 162.059 196.637C162.986 195.71 163.506 194.454 163.506 193.144V97.1479L138.808 82.3291V69.6541H148.687V76.7375L173.385 91.5563ZM158.566 64.7146H79.5331V40.0166C79.5331 37.3965 80.5739 34.8837 82.4266 33.031C84.2794 31.1783 86.7922 30.1375 89.4123 30.1375H148.687C151.307 30.1375 153.82 31.1783 155.673 33.031C157.526 34.8837 158.566 37.3965 158.566 40.0166V64.7146ZM148.687 40.0166H89.4123V54.8354H148.687V40.0166ZM153.627 128.929H84.4727V138.808H153.627V128.929ZM84.4727 158.567H133.869V148.687H84.4727V158.567Z" fill="white"/>
</svg>
