<svg width="238" height="238" viewBox="0 0 238 238" fill="none" xmlns="http://www.w3.org/2000/svg">
<path d="M153.727 74.5937H163.606V193.144C163.606 197.074 162.045 200.843 159.266 203.622C156.487 206.401 152.718 207.962 148.787 207.962H89.5125C85.5823 207.962 81.8131 206.401 79.0341 203.622C76.255 200.843 74.6937 197.074 74.6937 193.144V74.5937H84.5729V193.144C84.5729 194.454 85.0933 195.71 86.0197 196.637C86.946 197.563 88.2024 198.083 89.5125 198.083H148.787C150.098 198.083 151.354 197.563 152.28 196.637C153.207 195.71 153.727 194.454 153.727 193.144V74.5937ZM178.425 40.0166V69.6541H59.875V40.0166C59.875 37.3965 60.9158 34.8837 62.7685 33.031C64.6212 31.1783 67.134 30.1375 69.7542 30.1375H168.546C171.166 30.1375 173.679 31.1783 175.531 33.031C177.384 34.8837 178.425 37.3965 178.425 40.0166ZM168.546 40.0166H69.7542V59.775H168.546V40.0166ZM143.848 119.05H94.4521V128.929H143.848V119.05ZM94.4521 148.687H133.969V138.808H94.4521V148.687Z" fill="white"/>
</svg>
